<svg xmlns="http://www.w3.org/2000/svg" id="Layer_2" data-name="Layer 2" viewBox="0 0 33 33"><defs><style>.cls-1{fill:none;stroke:#fff;stroke-miterlimit:10}</style></defs><g id="Walletlink_Coinbase"><path d="M21.18,25.07H11.82a3.89,3.89,0,0,1-3.89-3.89V11.82a3.89,3.89,0,0,1,3.89-3.89h9.36a3.89,3.89,0,0,1,3.89,3.89v9.36A3.89,3.89,0,0,1,21.18,25.07Z" class="cls-1"/><path d="M17.84,18.28H15.16a.44.44,0,0,1-.44-.44V15.16a.44.44,0,0,1,.44-.44h2.68a.44.44,0,0,1,.44.44v2.68A.44.44,0,0,1,17.84,18.28Z" class="cls-1"/><path d="M16.5,22.51a6,6,0,1,0-6-6A6,6,0,0,0,16.5,22.51Z" class="cls-1"/></g></svg>