<svg xmlns="http://www.w3.org/2000/svg" width="25" height="24" fill="none" viewBox="0 0 25 24"><path stroke="#52CBFF" stroke-linecap="round" stroke-linejoin="round" stroke-width="2" d="M12.2538 13C12.8061 13 13.2538 12.5523 13.2538 12C13.2538 11.4477 12.8061 11 12.2538 11C11.7015 11 11.2538 11.4477 11.2538 12C11.2538 12.5523 11.7015 13 12.2538 13Z"/><path stroke="#52CBFF" stroke-linecap="round" stroke-linejoin="round" stroke-width="2" d="M12.2538 6C12.8061 6 13.2538 5.55228 13.2538 5C13.2538 4.44772 12.8061 4 12.2538 4C11.7015 4 11.2538 4.44772 11.2538 5C11.2538 5.55228 11.7015 6 12.2538 6Z"/><path stroke="#52CBFF" stroke-linecap="round" stroke-linejoin="round" stroke-width="2" d="M12.2538 20C12.8061 20 13.2538 19.5523 13.2538 19C13.2538 18.4477 12.8061 18 12.2538 18C11.7015 18 11.2538 18.4477 11.2538 19C11.2538 19.5523 11.7015 20 12.2538 20Z"/></svg>